<?xml version="1.0" encoding="utf-8"?>
<!-- Generator: Adobe Illustrator 26.4.1, SVG Export Plug-In . SVG Version: 6.00 Build 0)  -->
<svg version="1.1" id="Layer_1" xmlns="http://www.w3.org/2000/svg" xmlns:xlink="http://www.w3.org/1999/xlink" x="0px" y="0px"
	 viewBox="0 0 75.8 27.7" style="enable-background:new 0 0 75.8 27.7;" xml:space="preserve">
<style type="text/css">
	.st0{fill:#6CB244;}
	.st1{fill:#F06A25;}
	.st2{fill:#D5287B;}
	.st3{fill:none;}
	.st4{fill:#206886;}
	.st5{enable-background:new    ;}
	.st6{fill:#231F20;}
</style>
<g>
	<polygon class="st0" points="23.8,8.6 4.9,10.6 4.9,13.9 23.8,11.8 	"/>
	<polygon class="st1" points="4.9,14.7 4.9,18 23.8,15.9 23.8,12.6 	"/>
	<polygon class="st2" points="4.9,21.5 23.8,19.4 23.8,16.7 4.9,18.8 	"/>
	<path class="st3" d="M12.1,2.4c-1.1,0-2,0.9-2,2c0,0.4,0.1,0.8,0.3,1.1h3.3c0.2-0.3,0.3-0.7,0.3-1.1C14.1,3.3,13.2,2.4,12.1,2.4z"
		/>
	<path class="st3" d="M16.6,2.4c-1.1,0-2,0.9-2,2c0,0.4,0.1,0.8,0.3,1.1h3.3c0.2-0.3,0.3-0.7,0.3-1.1C18.6,3.3,17.7,2.4,16.6,2.4z"
		/>
	<path class="st4" d="M18.9,5.4c0.2-0.3,0.2-0.7,0.2-1.1c0-1.4-1.1-2.5-2.5-2.5c-1,0-1.9,0.6-2.3,1.4c-0.4-0.8-1.3-1.4-2.3-1.4
		c-1.4,0-2.5,1.1-2.5,2.5c0,0.4,0.1,0.8,0.2,1.1H4.9v4.4l18.9-2.1V5.5C23.8,5.5,18.9,5.5,18.9,5.4z M11.1,7.2
		c-0.4,0-0.7-0.3-0.7-0.7s0.3-0.7,0.7-0.7s0.7,0.3,0.7,0.7S11.4,7.2,11.1,7.2z M13.8,5.4h-3.3c-0.2-0.3-0.3-0.7-0.3-1.1
		c0-1.1,0.9-2,2-2s2,0.9,2,2C14.1,4.8,14,5.1,13.8,5.4z M17.6,7.2c-0.4,0-0.7-0.3-0.7-0.7s0.3-0.7,0.7-0.7s0.7,0.3,0.7,0.7
		S18,7.2,17.6,7.2z M18.3,5.4H15c-0.2-0.3-0.3-0.7-0.3-1.1c0-1.1,0.9-2,2-2s2,0.9,2,2C18.6,4.8,18.5,5.1,18.3,5.4z"/>
	<g>
		<path class="st4" d="M21.3,22.5h2.5v-2.2L5.4,22.5h7.3c-3.2,0.5-6.2,1.5-8.6,2.5c3-0.8,8.1-1.6,12.9-1.6c5,0,10.3,1.5,10.9,1.6
			C27.8,24.8,23.1,22.8,21.3,22.5z"/>
		<path class="st4" d="M27.9,24.9C28,24.9,28,24.9,27.9,24.9L27.9,24.9z"/>
	</g>
</g>
<g class="st5">
	<path class="st6" d="M30.6,17V6.4h0.6l4.9,8.4h-0.3l4.9-8.4h0.6l0,10.5h-0.8l0-9.4h0.2l-4.6,8h-0.4l-4.6-8h0.2V17H30.6z"/>
	<path class="st6" d="M43.2,17l4.8-10.5h0.8L53.7,17h-0.8L48.3,6.9h0.3L44.1,17H43.2z M45,14l0.3-0.6h6.3l0.3,0.6H45z"/>
	<path class="st6" d="M55.6,17V6.4h0.8v9.8h6.1V17H55.6z"/>
	<path class="st6" d="M64.4,17V6.4h0.8v9.8h6.1V17H64.4z"/>
</g>
<g class="st5">
	<path class="st6" d="M32.7,23.6c-0.4,0-0.9-0.1-1.2-0.2c-0.4-0.1-0.7-0.3-1-0.6c-0.3-0.3-0.5-0.6-0.7-0.9c-0.2-0.4-0.2-0.8-0.2-1.2
		c0-0.4,0.1-0.8,0.2-1.2c0.2-0.4,0.4-0.7,0.7-0.9c0.3-0.3,0.6-0.5,1-0.6c0.4-0.1,0.8-0.2,1.2-0.2c0.5,0,1,0.1,1.4,0.3
		c0.4,0.2,0.8,0.4,1,0.8l-1,0.9c-0.2-0.2-0.4-0.4-0.6-0.5c-0.2-0.1-0.5-0.2-0.7-0.2c-0.2,0-0.4,0-0.6,0.1c-0.2,0.1-0.4,0.2-0.5,0.3
		c-0.1,0.1-0.2,0.3-0.3,0.5c-0.1,0.2-0.1,0.4-0.1,0.7c0,0.2,0,0.5,0.1,0.7c0.1,0.2,0.2,0.4,0.3,0.5c0.1,0.1,0.3,0.3,0.5,0.3
		c0.2,0.1,0.4,0.1,0.6,0.1c0.3,0,0.5-0.1,0.7-0.2c0.2-0.1,0.4-0.3,0.6-0.5l1,0.9c-0.3,0.3-0.6,0.6-1,0.8
		C33.7,23.5,33.3,23.6,32.7,23.6z"/>
</g>
<g class="st5">
	<path class="st6" d="M38.5,23.6c-0.5,0-0.9-0.1-1.3-0.2c-0.4-0.1-0.7-0.4-1-0.6c-0.3-0.3-0.5-0.6-0.7-0.9c-0.2-0.4-0.2-0.7-0.2-1.2
		s0.1-0.8,0.2-1.2c0.2-0.4,0.4-0.7,0.7-0.9c0.3-0.3,0.6-0.5,1-0.6c0.4-0.1,0.8-0.2,1.3-0.2c0.5,0,0.9,0.1,1.3,0.2
		c0.4,0.1,0.7,0.4,1,0.6c0.3,0.3,0.5,0.6,0.7,0.9c0.2,0.4,0.2,0.8,0.2,1.2s-0.1,0.8-0.2,1.2c-0.2,0.4-0.4,0.7-0.7,0.9
		c-0.3,0.3-0.6,0.5-1,0.6S38.9,23.6,38.5,23.6z M38.5,22.2c0.2,0,0.4,0,0.6-0.1c0.2-0.1,0.3-0.2,0.5-0.3c0.1-0.1,0.2-0.3,0.3-0.5
		c0.1-0.2,0.1-0.4,0.1-0.7c0-0.2,0-0.5-0.1-0.7c-0.1-0.2-0.2-0.4-0.3-0.5c-0.1-0.1-0.3-0.3-0.5-0.3C38.9,19,38.7,19,38.5,19
		c-0.2,0-0.4,0-0.6,0.1c-0.2,0.1-0.3,0.2-0.5,0.3c-0.1,0.1-0.2,0.3-0.3,0.5c-0.1,0.2-0.1,0.4-0.1,0.7c0,0.2,0,0.5,0.1,0.7
		c0.1,0.2,0.2,0.4,0.3,0.5c0.1,0.1,0.3,0.3,0.5,0.3C38.1,22.2,38.3,22.2,38.5,22.2z"/>
	<path class="st6" d="M42.5,23.5v-5.7h1.3l3.1,3.8h-0.6v-3.8h1.6v5.7h-1.3l-3.1-3.8h0.6v3.8H42.5z"/>
	<path class="st6" d="M49,23.5v-5.7h1.3l3.1,3.8h-0.6v-3.8h1.6v5.7h-1.3L50,19.7h0.6v3.8H49z"/>
	<path class="st6" d="M55.6,23.5v-5.7H60V19h-2.9v3.2h3v1.2H55.6z M57,21.2V20h2.6v1.2H57z"/>
</g>
<g class="st5">
	<path class="st6" d="M63.9,23.6c-0.4,0-0.9-0.1-1.2-0.2s-0.7-0.3-1-0.6c-0.3-0.3-0.5-0.6-0.7-0.9s-0.2-0.8-0.2-1.2
		c0-0.4,0.1-0.8,0.2-1.2c0.2-0.4,0.4-0.7,0.7-0.9c0.3-0.3,0.6-0.5,1-0.6c0.4-0.1,0.8-0.2,1.2-0.2c0.5,0,1,0.1,1.4,0.3
		c0.4,0.2,0.8,0.4,1,0.8l-1,0.9c-0.2-0.2-0.4-0.4-0.6-0.5C64.5,19.1,64.2,19,64,19c-0.2,0-0.4,0-0.6,0.1c-0.2,0.1-0.4,0.2-0.5,0.3
		s-0.2,0.3-0.3,0.5c-0.1,0.2-0.1,0.4-0.1,0.7c0,0.2,0,0.5,0.1,0.7c0.1,0.2,0.2,0.4,0.3,0.5s0.3,0.3,0.5,0.3c0.2,0.1,0.4,0.1,0.6,0.1
		c0.3,0,0.5-0.1,0.7-0.2c0.2-0.1,0.4-0.3,0.6-0.5l1,0.9c-0.3,0.3-0.6,0.6-1,0.8C64.9,23.5,64.4,23.6,63.9,23.6z"/>
</g>
<g class="st5">
	<path class="st6" d="M68.1,23.5v-4.4h-1.7v-1.3h5.1v1.3h-1.7v4.4H68.1z"/>
</g>
</svg>
