<?xml version="1.0" encoding="UTF-8"?>
<svg id="Layer_1" data-name="Layer 1" xmlns="http://www.w3.org/2000/svg" viewBox="0 0 75.76 27.72">
  <defs>
    <style>
      .cls-1 {
        fill: none;
      }

      .cls-2 {
        letter-spacing: 0em;
      }

      .cls-3 {
        font-family: Montserrat-Light, Montserrat;
        font-size: 15.06px;
      }

      .cls-3, .cls-4 {
        fill: #231f20;
      }

      .cls-5 {
        fill: #f06a25;
      }

      .cls-6 {
        fill: #d5287b;
      }

      .cls-7 {
        fill: #206886;
      }

      .cls-8 {
        fill: #6cb244;
      }

      .cls-4 {
        font-family: Montserrat-ExtraBold, Montserrat;
        font-size: 8.12px;
      }

      .cls-9 {
        letter-spacing: -.03em;
      }
    </style>
  </defs>
  <g>
    <polygon class="cls-8" points="23.8 8.57 4.92 10.65 4.92 13.91 23.8 11.83 23.8 8.57"/>
    <polygon class="cls-5" points="4.92 14.71 4.92 17.97 23.8 15.9 23.8 12.63 4.92 14.71"/>
    <polygon class="cls-6" points="4.92 21.49 23.8 19.41 23.8 16.7 4.92 18.77 4.92 21.49"/>
    <path class="cls-1" d="M12.13,2.39c-1.09,0-1.98,.89-1.98,1.98,0,.4,.12,.77,.33,1.09h3.3c.21-.31,.33-.69,.33-1.09,0-1.09-.89-1.98-1.98-1.98Z"/>
    <path class="cls-1" d="M16.65,2.39c-1.09,0-1.98,.89-1.98,1.98,0,.4,.12,.77,.33,1.09h3.3c.21-.31,.33-.69,.33-1.09,0-1.09-.89-1.98-1.98-1.98Z"/>
    <path class="cls-7" d="M18.92,5.45c.16-.33,.25-.7,.25-1.09,0-1.39-1.13-2.52-2.52-2.52-.99,0-1.85,.58-2.26,1.41-.41-.84-1.27-1.41-2.26-1.41-1.39,0-2.52,1.13-2.52,2.52,0,.39,.09,.76,.25,1.09H4.92v4.39l18.88-2.07v-2.32h-4.88Zm-7.85,1.77c-.36,0-.66-.29-.66-.66s.29-.66,.66-.66,.66,.29,.66,.66-.29,.66-.66,.66Zm2.71-1.77h-3.3c-.21-.31-.33-.69-.33-1.09,0-1.09,.89-1.98,1.98-1.98s1.98,.89,1.98,1.98c0,.4-.12,.77-.33,1.09Zm3.86,1.77c-.36,0-.66-.29-.66-.66s.29-.66,.66-.66,.66,.29,.66,.66-.29,.66-.66,.66Zm.66-1.77h-3.3c-.21-.31-.33-.69-.33-1.09,0-1.09,.89-1.98,1.98-1.98s1.98,.89,1.98,1.98c0,.4-.12,.77-.33,1.09Z"/>
    <g>
      <path class="cls-7" d="M21.26,22.45h2.54v-2.23l-18.36,2.23h7.32c-3.2,.51-6.21,1.47-8.63,2.45,3.04-.76,8.09-1.62,12.86-1.65,5.04-.03,10.32,1.45,10.92,1.62-.15-.05-4.84-2.07-6.65-2.42Z"/>
      <path class="cls-7" d="M27.92,24.87c.08,.02,.07,.02,0,0h0Z"/>
    </g>
  </g>
  <text class="cls-3" transform="translate(28.77 16.96)"><tspan x="0" y="0">MALL</tspan></text>
  <text class="cls-4" transform="translate(29.34 23.46)"><tspan class="cls-9" x="0" y="0">C</tspan><tspan x="5.7" y="0">ONNE</tspan><tspan class="cls-2" x="31.13" y="0">C</tspan><tspan x="36.98" y="0">T</tspan></text>
</svg>