<?xml version="1.0" encoding="UTF-8"?>
<svg id="Layer_1" data-name="Layer 1" xmlns="http://www.w3.org/2000/svg" viewBox="0 0 92.68 88.56">
  <defs>
    <style>
      .cls-1 {
        fill: none;
      }

      .cls-2 {
        fill: #f06a25;
      }

      .cls-3 {
        fill: #d5287b;
      }

      .cls-4 {
        fill: #206886;
      }

      .cls-5 {
        fill: #6cb244;
      }
    </style>
  </defs>
  <polygon class="cls-5" points="75.47 26.71 6 34.34 6 46.34 75.47 38.71 75.47 26.71"/>
  <polygon class="cls-2" points="6 49.28 6 61.29 75.47 53.66 75.47 41.65 6 49.28"/>
  <polygon class="cls-3" points="6 74.24 75.47 66.61 75.47 56.6 6 64.23 6 74.24"/>
  <path class="cls-1" d="M32.53,3.95c-4.02,0-7.28,3.26-7.28,7.28,0,1.48,.44,2.85,1.2,4h12.16c.76-1.15,1.2-2.52,1.2-4,0-4.02-3.26-7.28-7.28-7.28Z"/>
  <path class="cls-1" d="M49.16,3.95c-4.02,0-7.28,3.26-7.28,7.28,0,1.48,.44,2.85,1.2,4h12.16c.76-1.15,1.2-2.52,1.2-4,0-4.02-3.26-7.28-7.28-7.28Z"/>
  <path class="cls-4" d="M57.5,15.23c.58-1.21,.92-2.57,.92-4,0-5.12-4.15-9.26-9.26-9.26-3.66,0-6.81,2.12-8.32,5.2-1.51-3.08-4.66-5.2-8.32-5.2-5.12,0-9.26,4.15-9.26,9.26,0,1.43,.34,2.79,.92,4H6V31.4l69.47-7.63V15.23h-17.97Zm-28.87,6.53c-1.34,0-2.42-1.08-2.42-2.42s1.08-2.42,2.42-2.42,2.42,1.08,2.42,2.42-1.08,2.42-2.42,2.42Zm9.97-6.53h-12.16c-.76-1.15-1.2-2.52-1.2-4,0-4.02,3.26-7.28,7.28-7.28s7.28,3.26,7.28,7.28c0,1.48-.44,2.85-1.2,4Zm14.2,6.53c-1.34,0-2.42-1.08-2.42-2.42s1.08-2.42,2.42-2.42,2.42,1.08,2.42,2.42-1.08,2.42-2.42,2.42Zm2.43-6.53h-12.16c-.76-1.15-1.2-2.52-1.2-4,0-4.02,3.26-7.28,7.28-7.28s7.28,3.26,7.28,7.28c0,1.48-.44,2.85-1.2,4Z"/>
  <g>
    <path class="cls-4" d="M66.14,77.76h9.33v-8.21L7.92,77.76h26.94c-11.76,1.87-22.87,5.41-31.77,9.01,11.18-2.8,29.79-5.95,47.33-6.07,18.55-.13,37.99,5.33,40.2,5.97-.56-.17-17.81-7.62-24.47-8.92Z"/>
    <path class="cls-4" d="M90.62,86.68c.28,.08,.27,.08,0,0h0Z"/>
  </g>
</svg>